Coordinates
version=1
nRows=15
nColumns=34
inDegrees=yes

Units are S.I. units (second, meters, Newtons, ...)
If the header above contains a line with 'inDegrees', this indicates whether rotational values are in degrees (yes) or radians (no).

endheader
time	pelvis_tilt	pelvis_list	pelvis_rotation	pelvis_tx	pelvis_ty	pelvis_tz	hip_flexion_r	hip_adduction_r	hip_rotation_r	knee_angle_r	ankle_angle_r	subtalar_angle_r	mtp_angle_r	hip_flexion_l	hip_adduction_l	hip_rotation_l	knee_angle_l	ankle_angle_l	subtalar_angle_l	mtp_angle_l	lumbar_extension	lumbar_bending	lumbar_rotation	arm_flex_r	arm_add_r	arm_rot_r	elbow_flex_r	pro_sup_r	arm_flex_l	arm_add_l	arm_rot_l	elbow_flex_l	pro_sup_l
      4.41666670	     -4.73162764	      8.61440094	     -7.17276853	      0.37104042	      0.93664927	     -0.09363748	    -12.12523936	     -5.48139079	     -0.67367195	     13.12073751	     40.48373617	      9.23474818	      0.00000000	     22.32812842	     11.67202280	     -8.06774571	      7.54294852	      1.36689644	     -3.81298738	      0.00000000	      6.79062457	    -11.77241999	     -0.12591573	     -4.77885497	     -1.78104679	      0.98454191	     30.06498713	     83.08348240	     -8.71190654	    -13.77322158	     13.25988521	     31.91182596	     77.38067673
      4.43333330	     -2.99612847	      6.12335697	     -7.23954460	      0.38473734	      0.94661287	     -0.09718029	    -10.76219337	     -4.28505496	     -1.52675297	     19.07521952	     39.82132528	     10.85140364	      0.00000000	     18.59481681	      9.80201675	     -5.99923774	      7.25739778	      1.68105796	     -3.10813671	      0.00000000	      5.17231201	     -9.12839560	     -0.99474767	     -4.18320168	     -2.51004712	      1.70582681	     28.26329293	     82.95202313	     -7.73383147	    -12.38565248	     13.61933203	     29.35496367	     77.33203857
      4.45000000	     -2.01748462	      4.31969153	     -7.49372319	      0.39563942	      0.95320819	     -0.10072777	     -8.55619974	     -3.68996394	     -1.87264486	     25.40633502	     38.92995770	     11.73600663	      0.00000000	     16.03586010	      8.24930696	     -4.96678743	      7.17407637	      2.20248088	     -2.67792275	      0.00000000	      4.19631802	     -7.09586533	     -1.47621948	     -3.92378766	     -3.05208398	      1.82630184	     27.71053693	     82.87947729	     -7.42778441	    -11.57785805	     13.83767836	     28.69989043	     77.32884764
      4.46666670	     -1.47126551	      3.42763908	     -7.75475992	      0.40619186	      0.95732762	     -0.10408849	     -6.46431800	     -4.05612710	     -2.80249696	     31.01684850	     37.94517777	     13.90101009	      0.00000000	     13.98417508	      7.56717311	     -4.40799570	      6.67429407	      3.04003917	     -2.20770269	      0.00000000	      3.92348407	     -6.02497453	     -1.69742450	     -3.56219106	     -3.42647464	      2.38009162	     26.45701677	     82.71309189	     -6.71890612	    -10.78884069	     14.10609208	     26.84770615	     77.25525299
      4.48333330	     -1.27406505	      2.87315816	     -7.89211769	      0.41618538	      0.96055463	     -0.10645386	     -4.92504082	     -4.32129159	     -3.16767840	     34.96716913	     35.87726302	     14.14445437	      0.00000000	     12.48186767	      7.14317309	     -3.95177941	      6.10013351	      3.70214489	     -2.02841843	      0.00000000	      3.68738998	     -5.37867798	     -2.01129799	     -3.54718693	     -3.67168559	      2.40330451	     26.32234723	     82.67432392	     -6.58537586	    -10.47784462	     14.21103528	     26.72918645	     77.25623678
      4.50000000	     -1.70849797	      2.81064009	     -8.24287840	      0.42589486	      0.96236291	     -0.10771821	     -2.95954214	     -4.85201711	     -3.21433331	     38.18886450	     34.12302402	     14.59082051	      0.00000000	     11.83994223	      7.03797869	     -4.41567317	      5.53577738	      4.55204653	     -1.21021354	      0.00000000	      4.41146191	     -5.15357674	     -1.95513260	     -3.57986229	     -3.78191328	      2.87075123	     25.70133950	     82.47129311	     -6.33691190	    -10.26601483	     14.50760591	     25.85742742	     77.18279261
      4.51666670	     -1.85000383	      2.52984548	     -8.30568324	      0.43552860	      0.96593535	     -0.10960239	     -1.75439518	     -4.96254014	     -3.46626841	     40.24307362	     31.90491909	     14.60325531	      0.00000000	     10.71469269	      6.85820948	     -4.16368988	      4.56195379	      5.11744346	     -0.81595773	      0.00000000	      4.49840844	     -4.82011647	     -2.18728801	     -3.68199728	     -3.87506010	      2.98016859	     25.60875172	     82.37846786	     -6.22493549	    -10.18582339	     14.64624570	     25.75216197	     77.16067016
      4.53333330	     -2.03497633	      2.10387234	     -8.31552539	      0.44602121	      0.96903931	     -0.11181629	     -0.44572013	     -4.79968758	     -3.64762325	     42.03945524	     29.47941104	     14.49418522	      0.00000000	      9.54661585	      6.55860399	     -3.90958285	      3.34331911	      5.50934849	     -0.15855240	      0.00000000	      4.65874587	     -4.27284721	     -2.40632292	     -3.78122111	     -4.01950967	      3.06069170	     25.50817060	     82.28354264	     -6.06884971	    -10.03956676	     14.78273799	     25.68144915	     77.13790320
      4.55000000	     -2.20979009	      1.49679043	     -8.25463715	      0.45625775	      0.97255458	     -0.11415489	      0.83088290	     -4.33799133	     -3.83791923	     43.40369565	     26.54568768	     14.05793294	      0.00000000	      8.36352485	      6.11464546	     -3.65250822	      2.05343984	      5.77479136	      0.62845539	      0.00000000	      4.82451373	     -3.53320256	     -2.61998974	     -3.86884361	     -4.19326850	      3.13195021	     25.38559091	     82.17386355	     -5.88498718	     -9.83655970	     14.93042907	     25.57489820	     77.10838193
      4.56666670	     -2.34299434	      0.75372796	     -8.16196557	      0.46513370	      0.97579712	     -0.11623853	      1.93780424	     -3.52446379	     -3.75909598	     44.14228212	     23.49923860	     12.73249661	      0.00000000	      7.22121515	      5.54672319	     -3.37287137	      0.83940896	      6.01745561	      1.60912668	      0.00000000	      4.90042565	     -2.60509920	     -2.86777285	     -3.82891544	     -4.42305848	      3.23741328	     25.25541966	     81.98331440	     -5.57001589	     -9.56724735	     15.14604310	     25.34448405	     77.04305576
      4.58333330	     -2.48034169	      0.02641336	     -7.99955156	      0.47304693	      0.97946667	     -0.11829800	      3.00004081	     -2.67764409	     -3.76135416	     44.34872278	     21.06745396	     11.64264194	      0.00000000	      6.29611625	      4.97214864	     -3.09965330	      0.00000000	      6.32074843	      2.31108113	      0.00000000	      4.89307307	     -1.73522463	     -3.15219752	     -3.84657893	     -4.61805791	      3.31418804	     25.17081395	     81.79317875	     -5.33077254	     -9.34295040	     15.32619404	     25.18522762	     76.96585228
      4.60000000	     -2.69925610	     -0.73708134	     -7.68157689	      0.48020116	      0.98331973	     -0.12059153	      4.18376255	     -1.71251821	     -3.86682850	     44.17635777	     19.40856612	     10.41039915	      0.00000000	      5.92665917	      4.30186964	     -2.94966844	      0.00000000	      6.95933869	      2.95512384	      0.00000000	      4.86457143	     -0.82206609	     -3.57595174	     -3.75536377	     -4.75939273	      3.36399054	     25.15805752	     81.60340769	     -5.01619261	     -9.16474104	     15.46260084	     25.08804871	     76.87621079
      4.61666670	     -2.85783320	     -1.47327216	     -7.36200607	      0.48730615	      0.98616462	     -0.12272497	      5.25984765	     -0.80745883	     -4.06096983	     43.51909540	     18.22317790	      9.29840600	      0.00000000	      5.52649744	      3.66479355	     -2.67850142	      0.00000000	      7.53596802	      3.38290807	      0.00000000	      4.80571190	      0.07475042	     -3.90344577	     -3.74044162	     -4.92664058	      3.37584593	     25.10161148	     81.48872664	     -4.78136298	     -8.94410000	     15.53865197	     25.08432982	     76.81670644
      4.63333330	     -2.96651971	     -2.08239148	     -6.99629103	      0.49435475	      0.98574642	     -0.12381347	      6.12789068	      0.02890196	     -4.21268869	     42.33066445	     17.19761907	      7.66911454	      0.00000000	      5.14971692	      3.14340786	     -2.44604758	      0.00000000	      8.08240143	      3.82329843	      0.00000000	      4.71454064	      0.76622777	     -4.33528165	     -3.58856090	     -4.99009665	      3.40328402	     25.10428023	     81.36396362	     -4.47221459	     -8.80667717	     15.59159479	     25.05727325	     76.73965268
      4.65000000	     -3.10871698	     -2.55545768	     -6.61824766	      0.50102305	      0.98389277	     -0.12424632	      6.77413871	      0.70707431	     -4.54261167	     40.60405898	     16.52749737	      6.38083198	      0.00000000	      4.87921956	      2.76052166	     -2.07109817	      0.00000000	      8.55799228	      4.16116657	      0.00000000	      4.60252306	      1.25545104	     -4.56480998	     -3.54639710	     -5.09726566	      3.42256160	     25.07751729	     81.28178599	     -4.25110643	     -8.66857159	     15.61917314	     25.12503452	     76.68221994
